<svg width="789" height="450" viewBox="0 0 789 450" fill="none" xmlns="http://www.w3.org/2000/svg">
<g id="Group 163" filter="url(#filter0_d)">
<path id="Fill 1" fill-rule="evenodd" clip-rule="evenodd" d="M154 322.006C148.807 334.652 125.856 356.624 124.177 353.742C122.497 350.86 133.139 317.712 140.48 315.386C147.82 313.059 154 322.006 154 322.006" fill="#D2FBFF"/>
<path id="Fill 3" fill-rule="evenodd" clip-rule="evenodd" d="M189 330.241C188.555 343.741 174.844 371.982 172.285 369.89C169.727 367.796 168.131 333.429 174.146 328.752C180.161 324.075 189 330.241 189 330.241" fill="#D2FBFF"/>
<path id="Fill 5" fill-rule="evenodd" clip-rule="evenodd" d="M63 255.152L54.512 261L50 255.774L57.7986 250L63 255.152Z" fill="#935D37"/>
<path id="Fill 7" fill-rule="evenodd" clip-rule="evenodd" d="M53.7025 256.444C56.8749 260.793 53.6928 264.175 49.9224 266.122C46.2112 268.039 41.9612 268.228 41.7486 267.827C41.536 267.424 43.8833 266.254 43.8833 266.254C43.8833 266.254 40.6396 266.731 38.7514 266.779C37.7777 266.804 41.8996 264.199 41.774 263.916C41.6592 263.656 37.3718 265.49 37.0649 264.91C36.4319 264.152 40.636 261.434 40.636 261.434C40.636 261.434 36.6904 262.553 37.0275 261.54C37.3633 260.524 44.555 257.956 44.555 257.956C44.555 257.956 41.0878 258.329 41.7667 256.974C42.4457 255.618 49.9695 251.329 53.7025 256.444" fill="#935D37"/>
<path id="Fill 9" fill-rule="evenodd" clip-rule="evenodd" d="M224 42.4121L219.883 33L213 35.0138L216.556 44L224 42.4121Z" fill="#935D37"/>
<g id="Group 13">
<mask id="mask0" mask-type="alpha" maskUnits="userSpaceOnUse" x="205" y="20" width="16" height="18">
<path id="Clip 12" fill-rule="evenodd" clip-rule="evenodd" d="M205.22 20.0996H220.307V37.2793H205.22V20.0996Z" fill="white"/>
</mask>
<g mask="url(#mask0)">
<path id="Fill 11" fill-rule="evenodd" clip-rule="evenodd" d="M216.499 36.8181C221.59 34.7849 220.775 30.228 218.667 26.5842C216.594 22.9996 213.108 20.6004 212.705 20.8313C212.302 21.061 213.637 23.2945 213.637 23.2945C213.637 23.2945 211.161 21.1795 209.593 20.1445C208.783 19.6116 210.824 24.0002 210.561 24.1743C210.319 24.3354 207.712 20.5163 207.132 20.8491C206.177 21.1605 208.223 25.6901 208.223 25.6901C208.223 25.6901 205.51 22.6585 205.232 23.6995C204.953 24.7404 209.607 30.7147 209.607 30.7147C209.607 30.7147 206.885 28.5725 206.707 30.0835C206.53 31.5958 210.511 39.2102 216.499 36.8181" fill="#935D37"/>
</g>
</g>
<path id="Fill 14" fill-rule="evenodd" clip-rule="evenodd" d="M207.019 235C207.019 235 271.526 287.77 264.459 314.394C260.21 330.4 188.504 345 188.504 345L185.199 330.797L224.25 314.394L187.872 273.729L185 238.873L207.019 235Z" fill="#035F75"/>
<path id="Fill 16" fill-rule="evenodd" clip-rule="evenodd" d="M167.751 238C167.751 238 150.512 272.58 164.877 287.949C179.243 303.318 193.608 333.095 193.608 333.095L151.305 318.555L148 332.645C148 332.645 206.675 375.747 228.161 351.71C249.054 328.337 195.524 241.842 195.524 241.842L167.751 238Z" fill="#067587"/>
<path id="Fill 18" fill-rule="evenodd" clip-rule="evenodd" d="M169.802 143.379C163.088 146.888 155.284 144.903 150.029 135.417C144.774 125.93 146.654 116.864 153.369 113.354C160.083 109.845 169.09 113.222 174.345 122.709C179.6 132.196 176.517 139.87 169.802 143.379Z" fill="#935D37"/>
<path id="Fill 20" fill-rule="evenodd" clip-rule="evenodd" d="M138.238 167.529C151.544 155.048 186.138 144.35 195.895 131.867C205.653 119.385 210.975 92.6389 210.975 78.3753C210.975 64.1103 211.862 40.0391 211.862 40.0391L226.719 37C226.719 37 233.81 85.6242 232.923 104.346C232.036 123.07 227.96 147.583 222.169 170.031C218.075 185.904 221.755 250.265 221.755 250.265C221.755 250.265 196.938 295.163 159.713 272.714C159.713 272.714 141.927 230.726 137.791 227.401C131.22 222.117 129.518 231.142 110.079 239.04C93.0131 245.975 60.4452 262.737 60.4452 262.737L53 251.512C53 251.512 87.5547 222.307 102.633 205.367C117.713 188.428 124.933 180.011 138.238 167.529" fill="#10AFD0"/>
<path id="Fill 22" fill-rule="evenodd" clip-rule="evenodd" d="M165.775 155.491C162.292 154.232 155 139.544 155 139.544L167.135 134L176.659 143.288C176.659 143.288 182.805 150.028 178.426 154.075C174.047 158.121 170.891 157.34 165.775 155.491" fill="#935D37"/>
<path id="Fill 24" fill-rule="evenodd" clip-rule="evenodd" d="M158.28 120.054C158.158 116.872 168.056 119.696 169.501 114.862C170.947 110.029 169.162 102.742 165.28 103.007C161.4 103.272 156.345 112.159 152.341 109.242C148.339 106.325 136.766 115.451 138.108 120.917C139.446 126.383 140.882 137.605 148.617 139.65C156.351 141.695 157.824 134.287 155.538 130.326C153.252 126.367 152.831 121.97 152.831 121.97C152.831 121.97 158.403 123.236 158.28 120.054Z" fill="#01181F"/>
<path id="Fill 26" fill-rule="evenodd" clip-rule="evenodd" d="M155.889 131.07C156.403 133.217 155.079 135.375 152.93 135.889C150.783 136.403 148.625 135.079 148.111 132.932C147.597 130.783 148.921 128.625 151.07 128.111C153.217 127.597 155.376 128.921 155.889 131.07" fill="#935D37"/>
<path id="Fill 28" fill-rule="evenodd" clip-rule="evenodd" d="M175.889 121.069C176.403 123.216 175.079 125.375 172.932 125.889C170.783 126.404 168.625 125.079 168.111 122.931C167.597 120.782 168.921 118.625 171.07 118.111C173.217 117.596 175.376 118.921 175.889 121.069" fill="#935D37"/>
<path id="Fill 36" fill-rule="evenodd" clip-rule="evenodd" d="M167 135.008L172.766 131C172.766 131 173.567 133.923 172.206 135.426C170.844 136.928 167 135.008 167 135.008" fill="#E9E4FF"/>
<path id="Fill 44" fill-rule="evenodd" clip-rule="evenodd" d="M710 118.932L705.391 110L699 112.447L703.045 121L710 118.932Z" fill="#B68962"/>
<path id="Fill 46" fill-rule="evenodd" clip-rule="evenodd" d="M702.713 113.352C707.427 110.929 706.319 106.391 704.043 102.87C701.804 99.4045 698.301 97.2399 697.933 97.5022C697.566 97.7634 699.002 99.9184 699.002 99.9184C699.002 99.9184 696.485 97.9658 694.912 97.0374C694.099 96.5582 696.366 100.837 696.127 101.031C695.908 101.211 693.143 97.5501 692.611 97.9287C691.723 98.312 694.005 102.731 694.005 102.731C694.005 102.731 691.196 99.8729 691.005 100.943C690.814 102.014 695.69 107.7 695.69 107.7C695.69 107.7 692.936 105.737 692.876 107.275C692.815 108.813 697.169 116.203 702.713 113.352" fill="#B68962"/>
<path id="Fill 48" fill-rule="evenodd" clip-rule="evenodd" d="M623 133.915L626.571 124L634 125.561L630.987 135L623 133.915Z" fill="#B68962"/>
<path id="Fill 50" fill-rule="evenodd" clip-rule="evenodd" d="M629.064 126.682C624.002 124.975 624.454 120.237 626.221 116.341C627.962 112.506 631.151 109.785 631.556 109.991C631.961 110.198 630.836 112.589 630.836 112.589C630.836 112.589 633.07 110.233 634.51 109.055C635.252 108.447 633.603 113.104 633.87 113.263C634.115 113.41 636.352 109.296 636.938 109.593C637.882 109.843 636.237 114.644 636.237 114.644C636.237 114.644 638.634 111.33 638.979 112.378C639.324 113.427 635.269 119.905 635.269 119.905C635.269 119.905 637.741 117.502 638.022 119.04C638.303 120.58 635.018 128.691 629.064 126.682" fill="#B68962"/>
<path id="Fill 52" fill-rule="evenodd" clip-rule="evenodd" d="M660.384 282.535C660.384 282.535 619.067 336.796 637.935 342.112C656.802 347.428 705.678 326.706 705.678 326.706L671.491 307.73L684.942 274L660.384 282.535Z" fill="#024759"/>
<g id="Group 56">
<mask id="mask1" mask-type="alpha" maskUnits="userSpaceOnUse" x="721" y="304" width="31" height="32">
<path id="Clip 55" fill-rule="evenodd" clip-rule="evenodd" d="M721.395 304.872H751.432V335.948H721.395V304.872Z" fill="white"/>
</mask>
<g mask="url(#mask1)">
<path id="Fill 54" fill-rule="evenodd" clip-rule="evenodd" d="M721.395 309.479L729.399 305.529C732.631 303.933 736.56 305.352 737.978 308.627C737.978 308.627 757.007 335.409 749.804 335.936C742.6 336.462 724.299 319.757 724.299 319.757L721.395 309.479Z" fill="#D2FBFF"/>
</g>
</g>
<path id="Fill 57" fill-rule="evenodd" clip-rule="evenodd" d="M714.55 322C714.55 322 726.155 342.879 722.164 345.739C718.173 348.597 703.139 325.927 703.139 325.927L714.55 322Z" fill="#D2FBFF"/>
<path id="Fill 59" fill-rule="evenodd" clip-rule="evenodd" d="M721.395 309.479L726 319.634C726 319.634 637.238 352.377 630.414 332.713C624.816 316.583 677.888 273.65 677.888 273.65L706.833 270C706.833 270 734.393 309.753 684.333 316.464L721.395 309.479Z" fill="#067587"/>
<path id="Fill 61" fill-rule="evenodd" clip-rule="evenodd" d="M644.166 162C644.166 162 637.661 173.762 638.014 178.423C638.367 183.083 642.245 188.339 647.341 186.691C652.437 185.042 644.166 162 644.166 162" fill="#01181F"/>
<path id="Fill 63" fill-rule="evenodd" clip-rule="evenodd" d="M700.883 118.227L710.627 115C710.627 115 725.353 148.491 721.291 183.845C719.555 198.959 704.097 221.759 703.162 227.739C702.227 233.719 709.441 270.437 709.441 270.437C694.753 282.655 668.467 290.683 658.266 287.17C655.278 286.141 650.98 281.918 643.715 256.349C643.064 254.063 638.818 245.116 638.12 242.585C637.45 240.149 605.787 210.376 604.191 188.808C602.015 159.387 619.132 130.32 619.132 130.32L631.352 134.241C631.352 134.241 615.16 174.409 624.968 182.883C636.3 192.676 654.501 203.159 667.519 195.776C709.837 171.777 700.883 118.227 700.883 118.227" fill="#7CC759"/>
<path id="Fill 65" fill-rule="evenodd" clip-rule="evenodd" d="M657.796 189.941C665.467 190.596 671.896 185.782 672.884 175.047C673.874 164.313 668.412 156.699 660.742 156.045C653.071 155.39 646.096 161.944 645.107 172.679C644.118 183.413 650.125 189.288 657.796 189.941Z" fill="#B68962"/>
<path id="Fill 67" fill-rule="evenodd" clip-rule="evenodd" d="M669.387 198.537C671.275 195.434 668.201 179 668.201 179L655.835 181.624L654.022 197.479C654.022 197.479 653.384 204.132 659.039 204.872C664.693 205.611 666.614 203.095 669.387 198.537" fill="#B68962"/>
<path id="Fill 69" fill-rule="evenodd" clip-rule="evenodd" d="M664.059 173.678C664.433 175.855 666.5 177.316 668.678 176.941C670.855 176.568 672.315 174.498 671.942 172.322C671.567 170.145 669.499 168.684 667.323 169.059C665.145 169.433 663.684 171.5 664.059 173.678" fill="#FFB7B9"/>
<path id="Fill 71" fill-rule="evenodd" clip-rule="evenodd" d="M644.059 171.678C644.433 173.855 646.5 175.315 648.678 174.942C650.855 174.567 652.316 172.499 651.941 170.323C651.567 168.145 649.498 166.684 647.322 167.059C645.145 167.433 643.684 169.5 644.059 171.678" fill="#B68962"/>
<path id="Fill 79" fill-rule="evenodd" clip-rule="evenodd" d="M657 181.324L650 180C650 180 650.379 183.039 652.247 183.869C654.116 184.697 657 181.324 657 181.324" fill="#E9E4FF"/>
<path id="Fill 81" fill-rule="evenodd" clip-rule="evenodd" d="M662.703 173.401C667.573 176.558 665.22 184.152 669.756 185.681C674.291 187.211 690.404 183.145 687.093 175.535C683.781 167.925 694.496 164.872 692.821 159.415C691.145 153.959 683.819 160.071 678.065 156.359C672.311 152.645 658.277 150.774 654.858 152.883C651.439 154.991 647.36 151.156 644.446 157.152C641.531 163.151 643.655 168.987 645.314 168.66C646.974 168.333 650.167 160.454 652.339 161.33C653.838 161.935 655.888 165.957 658.617 169.427C659.839 170.981 661.197 172.425 662.703 173.401Z" fill="#01181F"/>
<path id="Fill 83" fill-rule="evenodd" clip-rule="evenodd" d="M310 288.697L304.37 282.108C302.097 279.447 298.083 279.282 295.603 281.746C295.603 281.746 268.732 299.13 274.928 302.292C281.123 305.454 303.591 297.004 303.591 297.004L310 288.697Z" fill="#D2FBFF"/>
<path id="Fill 85" fill-rule="evenodd" clip-rule="evenodd" d="M342.676 358L335.101 362.255C332.042 363.974 331.071 367.906 332.98 370.843C332.98 370.843 344.561 400.821 348.901 395.328C353.24 389.835 349.507 365.974 349.507 365.974L342.676 358Z" fill="#D2FBFF"/>
<path id="Fill 87" fill-rule="evenodd" clip-rule="evenodd" d="M385 94.336L377.274 87L372 91.8376L379.042 99L385 94.336Z" fill="#FFCC99"/>
<path id="Fill 89" fill-rule="evenodd" clip-rule="evenodd" d="M376.143 90.1374C379.973 86.1901 377.239 82.3618 373.704 79.8988C370.226 77.4752 365.954 76.7157 365.681 77.0907C365.409 77.4669 367.615 78.9584 367.615 78.9584C367.615 78.9584 364.402 78.043 362.5 77.7418C361.519 77.5871 365.316 80.7583 365.149 81.0261C364.994 81.2714 360.921 78.8537 360.526 79.3965C359.778 80.0726 363.642 83.3688 363.642 83.3688C363.642 83.3688 359.812 81.7142 360.007 82.7796C360.202 83.845 367.108 87.3923 367.108 87.3923C367.108 87.3923 363.655 86.5519 364.147 88.0054C364.64 89.4589 371.638 94.7799 376.143 90.1374" fill="#FFCC99"/>
<path id="Fill 91" fill-rule="evenodd" clip-rule="evenodd" d="M377.364 244.155L345.46 240L336.098 249.142C336.098 249.142 325.377 266.847 330.876 282.388C335.433 295.27 338.316 307.868 338.316 307.868L309.455 286.128L301 296.934C301 296.934 334.739 339.444 355.943 333.921C371.895 329.764 365.587 294.231 365.587 294.231C365.587 294.231 374.889 321.311 376.713 327.545C371.454 334.425 341.594 358.936 341.594 358.936L349.473 366C349.473 366 402.328 342.609 401.998 328.482C401.087 289.417 377.364 244.155 377.364 244.155" fill="#035F75"/>
<path id="Fill 93" fill-rule="evenodd" clip-rule="evenodd" d="M386.738 128.501C387.564 115.167 377.027 97.6663 377.027 97.6663L385.809 91C385.809 91 405.333 118.71 407.813 132.878C410.291 147.044 387.31 203.579 386.117 213.507C382.967 239.755 382.415 258.103 383.225 253.925C369.472 262.557 348.08 263.82 333.225 254.759C333.225 254.759 333.019 241.007 327.233 226.84C321.448 212.674 297.273 212.674 285.704 200.172C274.133 187.672 270 160.17 270 160.17L280.331 157.253C280.331 157.253 290.455 184.13 301.199 184.13C311.944 184.13 349.539 171.871 368.349 162.67C380.675 156.641 386.411 133.78 386.738 128.501Z" fill="#65B34B"/>
<path id="Fill 95" fill-rule="evenodd" clip-rule="evenodd" d="M324.921 157.344C327.829 167.851 335.627 171.427 343.131 169.502C350.633 167.577 355 160.88 352.092 150.373C349.184 139.866 341.28 134.459 333.777 136.385C326.273 138.309 322.012 146.839 324.921 157.344" fill="#FFCC99"/>
<path id="Fill 97" fill-rule="evenodd" clip-rule="evenodd" d="M344.22 176.231C341.171 174.344 337 158.348 337 158.348L349.437 155L357.836 168.237C357.836 168.237 361.249 173.849 356.387 177.102C351.523 180.354 348.696 179.002 344.22 176.231Z" fill="#FFCC99"/>
<path id="Fill 99" fill-rule="evenodd" clip-rule="evenodd" d="M329.562 145.67C329.562 145.67 351.588 162.995 353.649 151.965C355.71 140.934 348.341 132.662 340.993 131.403C333.645 130.144 327.52 131.403 322.623 141.474C317.724 151.545 325.48 157 325.48 157C325.48 157 329.562 149.866 329.562 145.67Z" fill="#01181F"/>
<path id="Fill 101" fill-rule="evenodd" clip-rule="evenodd" d="M341.528 153.985C342.623 155.903 345.067 156.568 346.985 155.472C348.903 154.376 349.568 151.933 348.472 150.016C347.376 148.098 344.933 147.432 343.015 148.528C341.098 149.623 340.432 152.067 341.528 153.985" fill="#FFCC99"/>
<path id="Fill 109" fill-rule="evenodd" clip-rule="evenodd" d="M333 163.187C333 163.187 334.367 165.874 336.394 165.997C338.422 166.119 340 162 340 162L333 163.187Z" fill="#E9E4FF"/>
<path id="Fill 111" fill-rule="evenodd" clip-rule="evenodd" d="M335.603 131C335.603 131 330.265 128.522 331.086 120.261C331.908 111.999 337.246 111.999 337.246 106.217C337.246 100.435 337.246 96.304 348.333 93C348.333 93 341.763 99.6092 347.922 104.565C354.08 109.522 344.226 114.065 347.922 120.261C351.617 126.456 344.637 129.347 340.942 130.173C337.246 131 335.603 131 335.603 131" fill="#01181F"/>
<path id="Fill 113" fill-rule="evenodd" clip-rule="evenodd" d="M271.491 161L270 150.613L277.242 149L279 158.73L271.491 161Z" fill="#FFCC99"/>
<path id="Fill 115" fill-rule="evenodd" clip-rule="evenodd" d="M268.001 143.941C267.944 139.713 269.62 135.819 270.062 135.819C270.503 135.819 270.503 138.474 270.503 138.474C270.503 138.474 271.492 135.344 272.269 133.631C272.669 132.747 273.147 137.671 273.446 137.693C273.722 137.713 273.985 133.006 274.623 133.006C275.555 132.797 276.095 137.849 276.095 137.849C276.095 137.849 276.831 133.787 277.567 134.569C278.303 135.349 277.42 143.004 277.42 143.004C277.42 143.004 278.597 139.724 279.48 140.974C280.363 142.224 280.831 150.991 274.771 151.91C269.62 152.692 268.06 148.239 268.001 143.941Z" fill="#FFCC99"/>
<path id="Fill 117" fill-rule="evenodd" clip-rule="evenodd" d="M543.187 373C539.84 373 516.412 346.959 518.085 339.401C519.758 331.841 530.636 331 530.636 331C539.003 341.919 546.533 373 543.187 373Z" fill="#D2FBFF"/>
<path id="Fill 119" fill-rule="evenodd" clip-rule="evenodd" d="M537.822 314.438C537.822 314.438 527 330.365 527 332.879C527 335.394 529.71 347.275 539.488 344.614C561.047 338.748 568 328.059 568 328.059C568 328.059 564.461 311.086 537.822 314.438" fill="#024759"/>
<path id="Fill 121" fill-rule="evenodd" clip-rule="evenodd" d="M479.364 328C470.997 338.92 463.467 370 466.813 370C470.16 370 493.587 343.96 491.915 336.4C490.241 328.84 479.364 328 479.364 328" fill="#D2FBFF"/>
<path id="Fill 123" fill-rule="evenodd" clip-rule="evenodd" d="M473.178 311.441C473.178 311.441 484 327.477 484 330.008C484 332.54 481.502 343.512 471.512 341.825C461.522 340.136 443 325.156 443 325.156C443 325.156 446.537 308.066 473.178 311.441" fill="#024759"/>
<path id="Fill 125" fill-rule="evenodd" clip-rule="evenodd" d="M430.099 49L426 39.1826L432.8 36L437 45.1185L430.099 49Z" fill="#573719"/>
<path id="Fill 127" fill-rule="evenodd" clip-rule="evenodd" d="M430.192 39.4461C425.144 41.4881 422.541 37.5299 421.498 33.3482C420.471 29.2338 421.279 25.0155 421.727 24.9057C422.176 24.7958 422.784 27.3895 422.784 27.3895C422.784 27.3895 423.072 24.0879 423.467 22.2229C423.671 21.2599 425.283 25.9493 425.592 25.8955C425.877 25.8455 425.066 21.1867 425.713 21.028C426.612 20.5922 428.316 25.3902 428.316 25.3902C428.316 25.3902 428.132 21.2416 429.058 21.8226C429.984 22.4023 430.841 30.0943 430.841 30.0943C430.841 30.0943 431.284 26.5998 432.466 27.6007C433.648 28.6015 436.131 37.0441 430.192 39.4461" fill="#573719"/>
<path id="Fill 129" fill-rule="evenodd" clip-rule="evenodd" d="M580 57.413L575.883 48L569 50.0141L572.556 59L580 57.413Z" fill="#573719"/>
<path id="Fill 131" fill-rule="evenodd" clip-rule="evenodd" d="M574.37 41.4167C572.309 37.8696 568.843 35.4955 568.442 35.724C568.042 35.9514 569.37 38.1614 569.37 38.1614C569.37 38.1614 566.908 36.0685 565.348 35.0444C564.543 34.5171 566.571 38.8598 566.31 39.0321C566.07 39.1903 563.478 35.4123 562.901 35.7416C561.952 36.0498 563.987 40.5308 563.987 40.5308C563.987 40.5308 561.289 37.5321 561.012 38.5622C560.735 39.5922 565.362 45.504 565.362 45.504C565.362 45.504 562.655 43.383 562.48 44.8794C562.303 46.3747 566.261 53.9106 572.214 51.5435C577.275 49.5315 576.466 45.0224 574.37 41.4167Z" fill="#573719"/>
<path id="Fill 133" fill-rule="evenodd" clip-rule="evenodd" d="M487.936 220C487.936 220 429.601 314.798 442.999 324.846C472.957 347.313 513.942 264.725 513.942 264.725C513.942 264.725 536.617 337.951 564.703 330.462C578.481 326.788 554.717 238.099 554.717 238.099L487.936 220Z" fill="#035F75"/>
<path id="Fill 135" fill-rule="evenodd" clip-rule="evenodd" d="M567.355 55.7777C567.355 55.7777 574.88 99.707 571.513 106.433C567.18 115.086 495.341 127.058 465.911 93.1456C457.617 83.5876 435.146 40 435.146 40L426 44.9813C426 44.9813 433.069 136.327 474.227 155.012C474.016 193.986 480.299 211.195 481.377 226.272C503.17 249.383 532.334 249.509 555.779 240.271C555.779 240.271 559.148 203.054 564.029 174.942C570.95 168.617 590.87 144.865 597.705 133.836C613.92 107.679 578.996 54.1164 578.996 54.1164L567.355 55.7777Z" fill="#008B8B"/>
<path id="Fill 137" fill-rule="evenodd" clip-rule="evenodd" d="M524.638 113C516.906 112.965 510.946 107.6 511 96.8277C511.054 86.0557 517.253 78.9657 524.985 79.0001C532.716 79.0357 539.053 86.1838 539 96.9546C538.946 107.727 532.37 113.035 524.638 113Z" fill="#573719"/>
<path id="Fill 139" fill-rule="evenodd" clip-rule="evenodd" d="M516.611 123.73C514.302 120.919 519.282 105 519.282 105L532 105.746L531.419 117.815C531.419 117.815 533.37 126.888 527.818 128.482C522.266 130.075 520.004 127.856 516.611 123.73" fill="#573719"/>
<path id="Fill 141" fill-rule="evenodd" clip-rule="evenodd" d="M513.042 92.1392C515.174 92.7136 516.436 94.909 515.861 97.0409C515.287 99.174 513.091 100.436 510.958 99.8613C508.826 99.2855 507.564 97.0914 508.139 94.9583C508.713 92.8265 510.909 91.5634 513.042 92.1392Z" fill="#573719"/>
<path id="Fill 143" fill-rule="evenodd" clip-rule="evenodd" d="M541.861 97.0416C541.286 99.1748 539.091 100.436 536.959 99.8607C534.826 99.2863 533.564 97.0909 534.139 94.9591C534.713 92.8272 536.909 91.5642 539.042 92.1386C541.174 92.7144 542.437 94.9085 541.861 97.0416" fill="#573719"/>
<path id="Fill 151" fill-rule="evenodd" clip-rule="evenodd" d="M523 104.527L530 104C530 104 529.355 106.415 527.444 106.937C525.531 107.461 523 104.527 523 104.527L527.345 105.633" fill="#E9E4FF"/>
<path id="Fill 153" fill-rule="evenodd" clip-rule="evenodd" d="M513.706 95C513.706 95 517.447 85.1838 518.786 84.2259C522.038 81.9032 530.031 82.5726 532.401 83.8043C536.465 85.9162 538.091 93.9434 538.091 93.9434C538.091 93.9434 540.53 89.9292 539.514 82.114C539.187 79.6026 543.984 71.764 537.887 68.8063C531.792 65.8499 529.759 71.9748 525.899 71.9748C522.038 71.9748 521.022 68.3847 516.957 72.1869C512.894 75.9891 507 75.5662 507 79.3684C507 83.1706 511.267 90.3521 511.267 90.3521L513.706 95Z" fill="#01181F"/>
</g>
<defs>
<filter id="filter0_d" x="0" y="0.0996094" width="788.432" height="449.9" filterUnits="userSpaceOnUse" color-interpolation-filters="sRGB">
<feFlood flood-opacity="0" result="BackgroundImageFix"/>
<feColorMatrix in="SourceAlpha" type="matrix" values="0 0 0 0 0 0 0 0 0 0 0 0 0 0 0 0 0 0 127 0"/>
<feOffset dy="17"/>
<feGaussianBlur stdDeviation="18.5"/>
<feColorMatrix type="matrix" values="0 0 0 0 0.00392157 0 0 0 0 0.0901961 0 0 0 0 0.121569 0 0 0 0.459818 0"/>
<feBlend mode="normal" in2="BackgroundImageFix" result="effect1_dropShadow"/>
<feBlend mode="normal" in="SourceGraphic" in2="effect1_dropShadow" result="shape"/>
</filter>
</defs>
</svg>
